<svg width="88" height="78" viewBox="0 0 88 78" fill="none" xmlns="http://www.w3.org/2000/svg">
    <path
            d="M16.9342 0.307803C16.6092 0.478855 16.1987 0.889382 16.0276 1.21438C15.7368 1.74464 15.7197 2.37754 15.7197 10.1433C15.7197 19.192 15.7197 19.2433 16.6605 19.9789C17.1053 20.3381 17.2934 20.3552 20.8684 20.3552C22.9724 20.3552 24.7855 20.4236 25.0421 20.5262C25.2987 20.6289 26.3934 21.5525 27.5053 22.5789L29.4895 24.4775L29.575 22.8525C29.6434 21.4499 29.7118 21.1591 30.0539 20.8341L30.4474 20.4407L37.4947 20.3552C45.1066 20.2696 44.9868 20.2867 45.5513 19.3117C45.7908 18.9012 45.825 17.8578 45.825 10.2631C45.825 0.803855 45.8421 1.00912 44.7474 0.342013C44.2171 0.0170134 43.7895 -9.18992e-05 30.8579 -9.18992e-05C18.2513 -9.18992e-05 17.4816 0.0170134 16.9342 0.307803ZM33.9881 4.68675C34.2447 4.82359 35.5105 6.00386 36.8105 7.32096C38.7092 9.25386 39.1539 9.80122 39.1539 10.1946C39.1539 10.5881 38.675 11.1525 36.5368 13.2907C33.7487 16.096 33.3895 16.3012 32.6539 15.5657C32.0039 14.9157 32.2092 14.4367 33.7145 12.8973L35.1171 11.4604H28.4118C23.8789 11.4604 21.5868 11.392 21.3131 11.2723C20.4579 10.8789 20.3724 9.68149 21.1763 9.25386C21.3987 9.13412 23.8447 9.0657 28.275 9.0657C32.0039 9.0657 35.0487 9.01438 35.0487 8.92886C35.0487 8.86043 34.4329 8.19333 33.6803 7.4407C32.1408 5.91833 31.9697 5.42228 32.7566 4.80649C33.3039 4.37886 33.3895 4.37886 33.9881 4.68675Z"
            fill="#FAA300"/>
    <path
            d="M48.1855 17.7385C48.1342 19.0214 48.0316 19.5859 47.7408 20.1161C47.2447 21.0911 46.4237 21.878 45.3973 22.3398C44.5763 22.7332 44.371 22.7503 40.5737 22.7503H36.5881V28.9425V35.1175L37.0158 35.6819C37.2723 36.024 37.7 36.3148 38.0934 36.4346C38.4355 36.5201 40.3684 36.6056 42.3526 36.6056H45.996L48.0658 38.5214C49.1947 39.5819 50.2039 40.4714 50.2894 40.5056C50.375 40.5398 50.4434 39.8556 50.4434 38.9319C50.4434 36.5201 50.2894 36.6056 54.5487 36.6056H57.9697V35.5622C57.9697 34.0398 58.4144 32.2609 59.2184 30.6188C60.4671 28.053 63.375 25.5898 65.8894 24.9398L66.7105 24.7346L66.6592 21.1938C66.5737 15.6859 67.3776 16.0793 56.4987 16.0793H48.2539L48.1855 17.7385ZM48.7842 22.2543C49.2802 22.4767 49.6223 23.1267 49.4684 23.5543C49.4171 23.7253 48.8697 24.3753 48.2368 25.0082L47.125 26.1714H53.1118C58.9276 26.1714 59.1329 26.1885 59.5776 26.5306C59.8684 26.753 60.0223 27.0438 60.0223 27.3688C60.0223 27.6938 59.8684 27.9846 59.5776 28.2069C59.1329 28.549 58.9276 28.5661 53.1118 28.5661H47.125L48.2881 29.7464C49.246 30.7043 49.4684 31.0464 49.4684 31.474C49.4684 32.0898 49.1776 32.4319 48.5105 32.603C48.0487 32.7056 47.8434 32.5346 45.5513 30.2425C43.7381 28.4293 43.0881 27.6767 43.0881 27.3688C43.0881 27.0609 43.7381 26.3082 45.5342 24.5122C46.8684 23.1609 48.0658 22.0661 48.1684 22.0661C48.2881 22.0661 48.5618 22.1517 48.7842 22.2543Z"
            fill="#FAA300"/>
    <path
            d="M16.1645 27.0435C14.0263 27.5566 11.4776 29.5579 10.5197 31.5079C8.72369 35.1856 9.51053 39.6843 12.4355 42.2672C15.9592 45.3632 21.4329 45.175 24.7 41.8395C26.3592 40.129 27.1803 38.1106 27.1803 35.6645C27.1803 33.1158 26.3763 31.1658 24.6316 29.4211C23.3658 28.1724 22.254 27.5053 20.7658 27.1119C19.6711 26.8382 17.2421 26.7869 16.1645 27.0435Z"
            fill="#FAA300"/>
    <path
            d="M66.967 27.0436C64.8289 27.5568 62.3144 29.541 61.3394 31.491C59.5776 35.0147 60.2276 39.2226 62.9131 41.9252C66.3513 45.3633 72.0986 45.312 75.5026 41.8397C77.196 40.112 77.9828 38.1449 77.9828 35.6647C77.9828 33.1331 77.196 31.1831 75.4341 29.4383C74.1855 28.1726 73.0736 27.5054 71.5684 27.112C70.4736 26.8383 68.0447 26.787 66.967 27.0436Z"
            fill="#FAA300"/>
    <path
            d="M4.41308 47.1079C2.71966 47.5697 1.2315 48.8697 0.444661 50.5803C0.0683454 51.3842 0.0683455 51.5211 0.0170297 59.9539C-0.0342861 69.0197 -0.0171808 69.3618 0.769661 70.2855C1.72756 71.4145 3.8315 71.6539 5.02887 70.7474C6.26045 69.8066 6.20913 70.0803 6.31177 62.9816L6.39729 56.5842L6.80782 56.2592C7.33808 55.8316 7.88545 55.8487 8.33019 56.3276L8.7065 56.7211V67.3605V78H18.371H28.0354V67.3434V56.6697L28.4289 56.3105C28.9249 55.8487 29.4039 55.8316 29.9341 56.2592L30.3447 56.5842L30.4302 62.9816C30.4986 68.6605 30.5499 69.4303 30.8065 69.8237C32.2947 72.0987 35.8526 71.6711 36.5881 69.1395C36.7249 68.7118 36.7591 65.7697 36.7249 59.9539L36.6736 51.4013L36.1776 50.3921C35.5447 49.0921 34.4499 47.9974 33.2012 47.4158L32.2262 46.9539L18.7131 46.9197C8.29598 46.9026 5.01177 46.9368 4.41308 47.1079Z"
            fill="#FAA300"/>
    <path
            d="M55.2158 47.1079C53.5224 47.5697 52.0342 48.8697 51.2474 50.5803C50.8711 51.3842 50.8711 51.5211 50.8198 59.9539C50.7684 69.0197 50.7856 69.3618 51.5724 70.2855C52.5303 71.4145 54.6342 71.6539 55.8316 70.7474C57.0632 69.8066 57.0119 70.0803 57.1145 62.9816L57.2 56.5842L57.6106 56.2592C58.1408 55.8316 58.6882 55.8487 59.1329 56.3276L59.5092 56.7211V67.3605V78H69.1737H78.8382V67.3434V56.6697L79.2316 56.3105C79.7277 55.8487 80.2066 55.8316 80.7369 56.2592L81.1474 56.5842L81.2329 62.9816C81.3013 68.6605 81.3527 69.4303 81.6092 69.8237C83.0974 72.0987 86.6553 71.6711 87.3908 69.1395C87.5277 68.7118 87.5619 65.7697 87.5277 59.9539L87.4763 51.4013L87.0145 50.4263C86.4329 49.1776 85.2527 47.9974 84.004 47.4158L83.029 46.9539L69.5158 46.9197C59.0987 46.9026 55.8145 46.9368 55.2158 47.1079Z"
            fill="#FAA300"/>
</svg>