<svg width="79" height="79" viewBox="0 0 79 79" fill="none" xmlns="http://www.w3.org/2000/svg">
    <path
            d="M18.2881 25.3288V50.6426H19.172C23.3478 50.6426 26.533 51.5113 29.4286 53.4163C33.4825 56.0833 36.1647 60.5334 36.561 65.2731C36.6372 66.0656 36.6829 55.5042 36.6676 41.7272L36.6372 16.7334L36.2104 14.9808C34.8693 9.46388 32.1566 5.3643 28.1179 2.75825C25.6643 1.17328 22.8449 0.24363 19.934 0.0912288L18.2881 -0.000211733V25.3288Z"
            fill="#FAA300"/>
    <path
            d="M9.14404 36.7741V64.3587H15.8954C25.2071 64.3587 27.3712 64.5568 30.6631 65.7303C31.3946 65.9741 32.0347 66.1875 32.0956 66.1875C32.2937 66.1875 32.0194 64.2825 31.6384 63.0633C31.0898 61.3107 30.2821 60.0457 28.8038 58.5675C27.7674 57.5311 27.2188 57.1044 26.1063 56.5405C23.7593 55.3213 23.0582 55.2146 18.029 55.2146H13.7161V32.2021V9.18955H11.4301H9.14404V36.7741Z"
            fill="#FAA300"/>
    <path
            d="M50.4754 14.0054C47.7627 14.4321 43.8155 15.7885 41.7276 17.0077L41.0723 17.3887L41.1789 19.2632C41.2247 20.2995 41.2856 31.8972 41.2856 45.0342L41.3009 68.9307L42.581 68.0925C44.2879 66.9799 46.7263 65.8217 48.3418 65.3645C51.1917 64.5415 52.1823 64.4653 60.8539 64.4044L68.8854 64.3282V39.0448V13.7615L60.3967 13.7768C53.8435 13.792 51.5727 13.8377 50.4754 14.0054Z"
            fill="#FAA300"/>
    <path
            d="M0 45.9029V73.4874L12.5426 73.5332L25.07 73.5941L26.3654 73.9446C28.7581 74.6 30.9069 75.7887 32.3852 77.2975L33.132 78.0747H39.0146H44.8973L45.5679 77.3889C47.0766 75.8497 49.2712 74.6152 51.7858 73.9294C52.9288 73.5941 53.2184 73.5941 65.5019 73.5332L78.0293 73.4874V48.1889V22.9056H75.7433H73.4573V45.9181V68.9154L62.5301 68.9611L51.5877 69.0221L50.1551 69.4336C47.9606 70.0737 46.4366 70.8052 44.3334 72.2073L42.4132 73.5027H38.9842H35.5551L34.4274 72.695C32.0652 71.0033 30.1601 70.0584 27.6303 69.3574C26.472 69.0373 26.1672 69.0221 15.5144 68.9764L4.57203 68.9154V43.6321V18.3335H2.28601H0V45.9029Z"
            fill="#FAA300"/>
</svg>