<svg width="79" height="79" viewBox="0 0 79 79" fill="none" xmlns="http://www.w3.org/2000/svg">
    <path
            d="M43.5444 0.0930648C38.1863 0.75108 33.4078 2.49012 29.1934 5.32585C27.047 6.76722 23.6629 9.69696 24.1486 9.69696C24.2583 9.69696 24.8066 9.60295 25.402 9.47762C28.2221 8.88227 33.0475 8.70993 36.1026 9.07028C51.1899 10.8877 63.4729 21.9799 66.81 36.8009C67.938 41.877 67.8597 48.0342 66.5906 53.0476C66.2773 54.3167 65.3059 57.2307 64.8673 58.2804C64.7889 58.4371 64.8359 58.5781 64.9926 58.6251C65.1179 58.6721 67.7343 60.4425 70.8051 62.5575C76.2885 66.3333 76.4139 66.4116 77.1815 66.4116C77.8709 66.4116 78.0276 66.349 78.4976 65.8789C79.3593 65.0173 79.3279 64.8136 76.6645 56.4161L74.2988 48.9429L74.5808 48.4729C75.8655 46.2481 77.1972 43.1147 77.9179 40.6393C78.7639 37.6783 78.9519 36.1586 78.9519 32.0225C78.9519 29.4374 78.8736 27.714 78.7482 26.9307C77.4949 19.9589 74.4868 14.0837 69.7084 9.30528C64.7419 4.3545 58.3811 1.17409 51.4876 0.234068C49.8739 -0.000937359 44.9231 -0.0792725 43.5444 0.0930648Z"
            fill="#FAA300"/>
    <path
            d="M27.8775 12.6894C26.0915 12.9244 23.3027 13.5981 21.3757 14.2718C16.8949 15.8385 12.8058 18.4236 9.39041 21.839C4.61196 26.6174 1.60389 32.4926 0.350529 39.4644C0.0685221 41.0624 0.0685221 47.8933 0.350529 49.4913C1.03988 53.3924 2.34024 57.1211 4.07928 60.1605L4.79997 61.4296L2.48125 68.7461C1.21222 72.7568 0.13119 76.2819 0.0528551 76.5639C-0.229151 77.833 0.648202 78.9453 1.94857 78.9453C2.66925 78.9453 2.88859 78.82 8.23105 75.1382C11.2861 73.0388 13.8555 71.2841 13.9495 71.2215C14.0435 71.1745 14.8739 71.5661 15.7826 72.1145C18.7436 73.8849 22.535 75.3106 26.1541 75.9842C28.3475 76.4073 33.502 76.5639 35.7424 76.2976C42.9962 75.4046 49.545 72.2242 54.6681 67.1167C59.4466 62.3226 62.4547 56.4631 63.708 49.4913C63.8333 48.7236 63.9117 47.0002 63.9117 44.4778C63.9117 41.9554 63.8333 40.2321 63.708 39.4644C62.4547 32.4926 59.4466 26.6174 54.6681 21.839C49.7017 16.8882 43.3409 13.7078 36.4474 12.7678C34.5203 12.5014 29.7419 12.4544 27.8775 12.6894ZM34.536 26.7114C37.3561 27.3381 40.1135 29.5158 41.5548 32.2419C42.7769 34.5136 43.1215 37.976 42.3852 40.4044C41.4608 43.4281 39.9725 45.1829 36.604 47.2196C33.9406 48.8176 33.9093 48.8646 33.9093 51.2303C33.9093 53.361 33.7526 54.0347 33.1103 54.5674C32.1389 55.3978 30.6662 54.8807 30.3059 53.5961C29.9299 52.2017 30.2276 48.9586 30.8699 47.6582C31.4496 46.4519 32.3583 45.6215 34.5203 44.3212C35.5857 43.6788 36.8077 42.8171 37.2307 42.4098C39.2361 40.4671 39.7688 36.8323 38.4528 34.0123C37.8417 32.6962 36.51 31.3802 35.0843 30.6752C34.019 30.1582 33.9407 30.1425 32.0293 30.1425C30.1179 30.1425 30.0396 30.1582 28.9742 30.6752C26.6868 31.8032 25.3394 33.7303 24.9321 36.4406C24.6971 38.0074 24.4778 38.4147 23.6317 38.775C23.0677 39.01 22.3 38.869 21.83 38.4304C20.843 37.5373 21.3287 34.1846 22.8014 31.6779C23.4751 30.5342 25.4335 28.5758 26.5771 27.9021C28.9429 26.5077 31.7159 26.0847 34.536 26.7114ZM33.22 59.5809C33.6586 60.0195 33.7526 60.2389 33.7526 60.7716C33.7526 61.3042 33.6586 61.5236 33.22 61.9622C32.7813 62.4009 32.562 62.4949 32.0293 62.4949C31.4966 62.4949 31.2773 62.4009 30.8386 61.9622C30.3999 61.5236 30.3059 61.3042 30.3059 60.7716C30.3059 60.2389 30.3999 60.0195 30.8386 59.5809C31.2773 59.1422 31.4966 59.0482 32.0293 59.0482C32.562 59.0482 32.7813 59.1422 33.22 59.5809Z"
            fill="#FAA300"/>
</svg>